<svg viewBox="0 0 330 200" xmlns="http://www.w3.org/2000/svg"><g><g><g><g><g><line x1="60" y1="177" x2="55" y2="177" style="visibility: inherit;" fill="rgb(0, 0, 0)" stroke="rgb(204, 204, 204)" stroke-width="1px"></line><line x1="60" y1="163.3846153846154" x2="55" y2="163.3846153846154" style="visibility: inherit;" fill="rgb(0, 0, 0)" stroke="rgb(204, 204, 204)" stroke-width="1px"></line><line x1="60" y1="149.76923076923077" x2="55" y2="149.76923076923077" style="visibility: inherit;" fill="rgb(0, 0, 0)" stroke="rgb(204, 204, 204)" stroke-width="1px"></line><line x1="60" y1="136.15384615384616" x2="55" y2="136.15384615384616" style="visibility: inherit;" fill="rgb(0, 0, 0)" stroke="rgb(204, 204, 204)" stroke-width="1px"></line><line x1="60" y1="122.53846153846153" x2="55" y2="122.53846153846153" style="visibility: inherit;" fill="rgb(0, 0, 0)" stroke="rgb(204, 204, 204)" stroke-width="1px"></line><line x1="60" y1="108.92307692307693" x2="55" y2="108.92307692307693" style="visibility: inherit;" fill="rgb(0, 0, 0)" stroke="rgb(204, 204, 204)" stroke-width="1px"></line><line x1="60" y1="95.3076923076923" x2="55" y2="95.3076923076923" style="visibility: inherit;" fill="rgb(0, 0, 0)" stroke="rgb(204, 204, 204)" stroke-width="1px"></line><line x1="60" y1="81.6923076923077" x2="55" y2="81.6923076923077" style="visibility: inherit;" fill="rgb(0, 0, 0)" stroke="rgb(204, 204, 204)" stroke-width="1px"></line><line x1="60" y1="68.07692307692307" x2="55" y2="68.07692307692307" style="visibility: inherit;" fill="rgb(0, 0, 0)" stroke="rgb(204, 204, 204)" stroke-width="1px"></line><line x1="60" y1="54.46153846153847" x2="55" y2="54.46153846153847" style="visibility: inherit;" fill="rgb(0, 0, 0)" stroke="rgb(204, 204, 204)" stroke-width="1px"></line><line x1="60" y1="40.84615384615386" x2="55" y2="40.84615384615386" style="visibility: inherit;" fill="rgb(0, 0, 0)" stroke="rgb(204, 204, 204)" stroke-width="1px"></line><line x1="60" y1="27.230769230769234" x2="55" y2="27.230769230769234" style="visibility: inherit;" fill="rgb(0, 0, 0)" stroke="rgb(204, 204, 204)" stroke-width="1px"></line><line x1="60" y1="13.615384615384626" x2="55" y2="13.615384615384626" style="visibility: inherit;" fill="rgb(0, 0, 0)" stroke="rgb(204, 204, 204)" stroke-width="1px"></line><line x1="60" y1="0" x2="55" y2="0" style="visibility: inherit;" fill="rgb(0, 0, 0)" stroke="rgb(204, 204, 204)" stroke-width="1px"></line></g><g transform="translate(50, 0)"><text x="0" y="177" dx="0em" dy="0.3em" style="text-anchor: end; visibility: hidden; font-family: Roboto, sans-serif; font-size: 12px; font-weight: 200;" fill="rgb(33, 33, 33)" stroke="none" stroke-width="1px">-0.01</text><text x="0" y="163.3846153846154" dx="0em" dy="0.3em" style="text-anchor: end; visibility: inherit; font-family: Roboto, sans-serif; font-size: 12px; font-weight: 200;" fill="rgb(33, 33, 33)" stroke="none" stroke-width="1px">0</text><text x="0" y="149.76923076923077" dx="0em" dy="0.3em" style="text-anchor: end; visibility: hidden; font-family: Roboto, sans-serif; font-size: 12px; font-weight: 200;" fill="rgb(33, 33, 33)" stroke="none" stroke-width="1px">0.01</text><text x="0" y="136.15384615384616" dx="0em" dy="0.3em" style="text-anchor: end; visibility: inherit; font-family: Roboto, sans-serif; font-size: 12px; font-weight: 200;" fill="rgb(33, 33, 33)" stroke="none" stroke-width="1px">0.02</text><text x="0" y="122.53846153846153" dx="0em" dy="0.3em" style="text-anchor: end; visibility: hidden; font-family: Roboto, sans-serif; font-size: 12px; font-weight: 200;" fill="rgb(33, 33, 33)" stroke="none" stroke-width="1px">0.03</text><text x="0" y="108.92307692307693" dx="0em" dy="0.3em" style="text-anchor: end; visibility: inherit; font-family: Roboto, sans-serif; font-size: 12px; font-weight: 200;" fill="rgb(33, 33, 33)" stroke="none" stroke-width="1px">0.04</text><text x="0" y="95.3076923076923" dx="0em" dy="0.3em" style="text-anchor: end; visibility: hidden; font-family: Roboto, sans-serif; font-size: 12px; font-weight: 200;" fill="rgb(33, 33, 33)" stroke="none" stroke-width="1px">0.05</text><text x="0" y="81.6923076923077" dx="0em" dy="0.3em" style="text-anchor: end; visibility: inherit; font-family: Roboto, sans-serif; font-size: 12px; font-weight: 200;" fill="rgb(33, 33, 33)" stroke="none" stroke-width="1px">0.06</text><text x="0" y="68.07692307692307" dx="0em" dy="0.3em" style="text-anchor: end; visibility: hidden; font-family: Roboto, sans-serif; font-size: 12px; font-weight: 200;" fill="rgb(33, 33, 33)" stroke="none" stroke-width="1px">0.07</text><text x="0" y="54.46153846153847" dx="0em" dy="0.3em" style="text-anchor: end; visibility: inherit; font-family: Roboto, sans-serif; font-size: 12px; font-weight: 200;" fill="rgb(33, 33, 33)" stroke="none" stroke-width="1px">0.08</text><text x="0" y="40.84615384615386" dx="0em" dy="0.3em" style="text-anchor: end; visibility: hidden; font-family: Roboto, sans-serif; font-size: 12px; font-weight: 200;" fill="rgb(33, 33, 33)" stroke="none" stroke-width="1px">0.09</text><text x="0" y="27.230769230769234" dx="0em" dy="0.3em" style="text-anchor: end; visibility: inherit; font-family: Roboto, sans-serif; font-size: 12px; font-weight: 200;" fill="rgb(33, 33, 33)" stroke="none" stroke-width="1px">0.1</text><text x="0" y="13.615384615384626" dx="0em" dy="0.3em" style="text-anchor: end; visibility: hidden; font-family: Roboto, sans-serif; font-size: 12px; font-weight: 200;" fill="rgb(33, 33, 33)" stroke="none" stroke-width="1px">0.11</text><text x="0" y="0" dx="0em" dy="0.3em" style="text-anchor: end; visibility: hidden; font-family: Roboto, sans-serif; font-size: 12px; font-weight: 200;" fill="rgb(33, 33, 33)" stroke="none" stroke-width="1px">0.12</text></g><line x1="60" y1="0" x2="60" y2="177" fill="rgb(0, 0, 0)" stroke="rgb(204, 204, 204)" stroke-width="1px"></line></g></g><g transform="translate(60, 0)" clip-path="url(#clip_0)"><clipPath id="clip_0"><rect width="270" height="177"></rect></clipPath><g><g><g><line x1="0" y1="0" x2="0" y2="177" fill="rgb(0, 0, 0)" stroke="rgb(66, 66, 66)" stroke-width="1px" opacity="0.25"></line><line x1="24.545454545454547" y1="0" x2="24.545454545454547" y2="177" fill="rgb(0, 0, 0)" stroke="rgb(66, 66, 66)" stroke-width="1px" opacity="0.25"></line><line x1="49.09090909090909" y1="0" x2="49.09090909090909" y2="177" fill="rgb(0, 0, 0)" stroke="rgb(66, 66, 66)" stroke-width="1px" opacity="0.25"></line><line x1="73.63636363636363" y1="0" x2="73.63636363636363" y2="177" fill="rgb(0, 0, 0)" stroke="rgb(66, 66, 66)" stroke-width="1px" opacity="0.25"></line><line x1="98.18181818181819" y1="0" x2="98.18181818181819" y2="177" fill="rgb(0, 0, 0)" stroke="rgb(66, 66, 66)" stroke-width="1px" opacity="0.25"></line><line x1="122.72727272727272" y1="0" x2="122.72727272727272" y2="177" fill="rgb(0, 0, 0)" stroke="rgb(66, 66, 66)" stroke-width="1px" opacity="0.25"></line><line x1="147.27272727272725" y1="0" x2="147.27272727272725" y2="177" fill="rgb(0, 0, 0)" stroke="rgb(66, 66, 66)" stroke-width="1px" opacity="0.25"></line><line x1="171.8181818181818" y1="0" x2="171.8181818181818" y2="177" fill="rgb(0, 0, 0)" stroke="rgb(66, 66, 66)" stroke-width="1px" opacity="0.25"></line><line x1="196.36363636363637" y1="0" x2="196.36363636363637" y2="177" fill="rgb(0, 0, 0)" stroke="rgb(66, 66, 66)" stroke-width="1px" opacity="0.25"></line><line x1="220.90909090909093" y1="0" x2="220.90909090909093" y2="177" fill="rgb(0, 0, 0)" stroke="rgb(66, 66, 66)" stroke-width="1px" opacity="0.25"></line><line x1="245.45454545454544" y1="0" x2="245.45454545454544" y2="177" fill="rgb(0, 0, 0)" stroke="rgb(66, 66, 66)" stroke-width="1px" opacity="0.25"></line><line x1="270" y1="0" x2="270" y2="177" fill="rgb(0, 0, 0)" stroke="rgb(66, 66, 66)" stroke-width="1px" opacity="0.25"></line></g><g><line x1="0" y1="177" x2="270" y2="177" fill="rgb(0, 0, 0)" stroke="rgb(66, 66, 66)" stroke-width="1px" opacity="0.25"></line><line x1="0" y1="163.3846153846154" x2="270" y2="163.3846153846154" fill="rgb(0, 0, 0)" stroke="rgb(66, 66, 66)" stroke-width="1px" opacity="0.25"></line><line x1="0" y1="149.76923076923077" x2="270" y2="149.76923076923077" fill="rgb(0, 0, 0)" stroke="rgb(66, 66, 66)" stroke-width="1px" opacity="0.25"></line><line x1="0" y1="136.15384615384616" x2="270" y2="136.15384615384616" fill="rgb(0, 0, 0)" stroke="rgb(66, 66, 66)" stroke-width="1px" opacity="0.25"></line><line x1="0" y1="122.53846153846153" x2="270" y2="122.53846153846153" fill="rgb(0, 0, 0)" stroke="rgb(66, 66, 66)" stroke-width="1px" opacity="0.25"></line><line x1="0" y1="108.92307692307693" x2="270" y2="108.92307692307693" fill="rgb(0, 0, 0)" stroke="rgb(66, 66, 66)" stroke-width="1px" opacity="0.25"></line><line x1="0" y1="95.3076923076923" x2="270" y2="95.3076923076923" fill="rgb(0, 0, 0)" stroke="rgb(66, 66, 66)" stroke-width="1px" opacity="0.25"></line><line x1="0" y1="81.6923076923077" x2="270" y2="81.6923076923077" fill="rgb(0, 0, 0)" stroke="rgb(66, 66, 66)" stroke-width="1px" opacity="0.25"></line><line x1="0" y1="68.07692307692307" x2="270" y2="68.07692307692307" fill="rgb(0, 0, 0)" stroke="rgb(66, 66, 66)" stroke-width="1px" opacity="0.25"></line><line x1="0" y1="54.46153846153847" x2="270" y2="54.46153846153847" fill="rgb(0, 0, 0)" stroke="rgb(66, 66, 66)" stroke-width="1px" opacity="0.25"></line><line x1="0" y1="40.84615384615386" x2="270" y2="40.84615384615386" fill="rgb(0, 0, 0)" stroke="rgb(66, 66, 66)" stroke-width="1px" opacity="0.25"></line><line x1="0" y1="27.230769230769234" x2="270" y2="27.230769230769234" fill="rgb(0, 0, 0)" stroke="rgb(66, 66, 66)" stroke-width="1px" opacity="0.25"></line><line x1="0" y1="13.615384615384626" x2="270" y2="13.615384615384626" fill="rgb(0, 0, 0)" stroke="rgb(66, 66, 66)" stroke-width="1px" opacity="0.25"></line><line x1="0" y1="0" x2="270" y2="0" fill="rgb(0, 0, 0)" stroke="rgb(66, 66, 66)" stroke-width="1px" opacity="0.25"></line></g></g></g><g><g><line x1="0" y1="163.3846153846154" x2="270" y2="163.3846153846154" fill="rgb(0, 0, 0)" stroke="rgb(153, 153, 153)" stroke-width="1.5px"></line></g></g><g><g><line x1="24.545454545454547" y1="0" x2="24.545454545454547" y2="177" fill="rgb(0, 0, 0)" stroke="rgb(153, 153, 153)" stroke-width="1.5px"></line></g></g><g><g><g><g><g><path stroke="rgb(255, 112, 67)" stroke-width="2px" d="M29.454545454545453,-16.47144400561138L29.94545454545455,51.57878699227148L30.436363636363637,74.73028254149393L30.92727272727273,86.5711725853618L31.418181818181818,91.48563086612084L31.90909090909091,119.22349735362792L32.4,111.45221332433901L32.89090909090909,123.89466480815409L33.38181818181818,91.81569597396401L33.872727272727275,118.86552745075316L34.36363636363636,101.5448388951008L34.85454545454545,85.65209116703384L35.34545454545455,70.8882899187348L35.836363636363636,107.17910670270798L36.32727272727273,92.35508758069543L36.81818181818181,60.423424368981244L37.30909090909091,101.11781635469791L37.800000000000004,91.93160256583086L38.29090909090909,120.24051737244407L38.78181818181818,137.2803167073951L39.27272727272727,147.55865382741052L39.763636363636365,86.02995299571857L40.25454545454545,67.90197154278137L40.74545454545454,105.87718474456317L41.23636363636364,109.32846452883598L41.72727272727273,56.229694331760086L42.21818181818182,62.11227710748307L42.709090909090904,39.88152105079055L43.2,12.709837865831505L43.69090909090909,13.072056891075828L44.18181818181818,42.58969495620929L44.67272727272728,28.22243434645268L45.163636363636364,28.53376730051164L45.654545454545456,25.23503047360246L46.14545454545454,31.588402796769632L46.63636363636364,38.83150438589407L47.12727272727273,-63.8940139075335L48.6,-5.854083577106889L49.09090909090909,9.55831863016717L49.58181818181818,-21.005624998726528L50.07272727272727,-5.3599920977785835L50.56363636363637,31.421542631611224L51.054545454545455,44.17754099605708L51.54545454545455,58.58437148512178L52.03636363636363,54.92016067740873L52.52727272727273,72.76348079135649L53.018181818181816,62.50178066564303L53.50909090909091,62.33552978852394L54,90.12008726456992L54.49090909090909,119.26251388944398L54.981818181818184,104.56120081665114L55.47272727272727,-7.790975323556364L55.96363636363636,-31.03397226361606L56.45454545454545,44.93623203618453L56.945454545454545,70.7488162616495L57.43636363636364,65.54098081815631L57.92727272727272,1.9639710806740762L58.41818181818182,30.260842907878732L58.90909090909091,79.5346594971482L59.4,81.70479623715158L59.8909090909091,114.10441619089549L60.38181818181818,37.310647286409115L60.872727272727275,47.65654132855131L61.36363636363636,34.3123872120557L61.85454545454546,26.03358649800335L62.345454545454544,51.78261433320388L62.836363636363636,-2.315354126415402L63.32727272727273,33.46617119814879L63.81818181818182,-2.3039896667109057L64.30909090909091,6.296684726653741L64.8,45.6044717641756L65.2909090909091,48.49375800791661L65.78181818181818,94.28671633545116L66.27272727272727,104.38925992776164L66.76363636363637,98.85047882257963L67.25454545454545,98.41367186673232L67.74545454545455,88.13066337951362L68.23636363636363,64.69655050398224L68.72727272727272,36.91177811177744L69.21818181818182,56.83906721765182L69.7090909090909,67.16159324509682L70.2,74.06311070213692L70.6909090909091,88.27940389274161L71.18181818181817,104.65164222527552L71.67272727272727,64.26144887975413L72.16363636363636,26.030711845998685L72.65454545454546,57.44488803578256L73.14545454545456,73.1346258270864L73.63636363636363,55.09985308154553L74.12727272727273,72.43560466626685L74.61818181818182,81.42105599365429L75.10909090909091,75.97447774391145L75.60000000000001,96.77853250803857L76.09090909090908,97.71511853746728L76.58181818181818,109.87737843011801L77.07272727272728,116.5756574458777L77.56363636363636,128.92724079423084L78.05454545454545,109.43419136401695L78.54545454545455,63.86328349083978L79.03636363636363,43.21950777696377L79.52727272727273,74.45693561881713L80.01818181818183,100.27939247000636L80.5090909090909,116.04517381044968L81,115.91941189742347L81.49090909090908,134.8510317552145L81.98181818181818,134.5552340400894L82.47272727272728,88.63006473451777L82.96363636363635,118.2595772893152L83.45454545454545,131.40805427689725L83.94545454545455,105.25867690213454L84.43636363636364,33.419203336597924L84.92727272727274,68.24998326449665L85.41818181818181,100.96660528001324L85.9090909090909,71.47227004877547L86.4,77.24859370417487L86.89090909090909,111.37623313006115L87.38181818181818,130.8725090467231L87.87272727272727,120.4588892481091L88.36363636363636,134.68825654950376L88.85454545454546,95.02741408529937L89.34545454545456,107.0121404732098L89.83636363636363,77.71374462780031L90.32727272727273,111.87316985635486L90.81818181818181,89.99774719119573L91.30909090909091,69.46572477034721L91.80000000000001,83.23358957508707L92.29090909090908,90.67738372546599L92.78181818181818,96.2873536238341L93.27272727272728,77.16072085344098L93.76363636363637,70.6407398732639L94.25454545454546,85.57244404406629L94.74545454545454,30.648077850739167L95.23636363636363,82.98023135301473L95.72727272727273,93.95644698779446L96.21818181818182,116.49940640588385L96.7090909090909,121.14795115116797L97.2,137.9881553074612L97.69090909090909,126.2532015487397L98.18181818181819,127.38145937292838L98.67272727272727,122.50333745112688L99.16363636363636,116.90784837456789L99.65454545454546,135.44409364150115L100.14545454545454,69.55722749321276L100.63636363636364,100.71618282263185L101.12727272727274,113.52970920665503L101.61818181818181,108.3649014764679L102.10909090909091,109.8407864132179L102.6,131.14939492760544L103.0909090909091,143.9890215733237L103.58181818181818,151.14818217800962L104.07272727272726,121.07844832668385L104.56363636363636,137.94645361277074L105.05454545454546,146.2155644165181L105.54545454545455,121.49549340498969L106.03636363636363,138.19668065975424L106.52727272727273,147.89062379406124L107.01818181818182,137.6408353506973L107.50909090909092,92.49650003530823L108,120.57943846978948L108.49090909090908,137.59258616154838L108.98181818181818,110.98447460505176L109.47272727272727,131.7266847685343L109.96363636363637,144.2809339407953L110.45454545454547,110.42271369773762L110.94545454545454,110.09516569010204L111.43636363636364,131.35648403082166L111.92727272727272,122.54650499806054L112.41818181818182,138.500518397045L112.9090909090909,148.39969565498743L113.39999999999999,123.02381793185512L113.89090909090909,139.1136753758735L114.38181818181819,148.7131283051988L114.87272727272727,109.48756879739518L115.36363636363636,77.67408113582465L115.85454545454544,103.18998682166334L116.34545454545454,124.92599201346708L116.83636363636364,138.89344135807158L117.32727272727273,112.25514175090451L117.81818181818181,104.82262421649804L118.30909090909091,128.13849760957353L118.8,142.0735600964453L119.2909090909091,150.4890591375419L119.7818181818182,155.64728163637128L120.27272727272727,158.6877535985832L120.76363636363637,160.56649831299606L121.25454545454545,134.73528374925948L121.74545454545455,146.03163178025687L122.23636363636363,152.91836368491457L122.72727272727272,157.05040282770915L123.21818181818182,159.58408785047166L123.70909090909092,161.04983732704343L124.2,132.90128772251984L124.69090909090909,145.04015725027233L125.18181818181817,152.2690174298381L125.67272727272727,125.89002545622513L126.16363636363637,122.0441686686726L126.65454545454546,130.30219336931094L127.14545454545454,143.480700638347L127.63636363636364,151.38780499976863L128.12727272727273,135.21883695963064L128.61818181818182,146.3762252554531L129.10909090909092,153.12511977003228L129.6,157.22891801586553L130.0909090909091,159.63673542627976L130.5818181818182,160.97250278646902L131.07272727272726,160.30350165767945L131.56363636363636,147.70271654640035L132.05454545454546,153.92101454460064L132.54545454545453,154.7655317273987L133.03636363636363,158.21316519028537L133.52727272727273,160.28174526801737L134.0181818181818,161.52289331465659L134.5090909090909,162.2675821426401L135,162.7143954394302L135.4909090909091,131.17694420610272L135.9818181818182,143.51539726702455L136.47272727272727,151.46308451406088L136.96363636363637,127.2036964662511L137.45454545454544,141.6216024965111L137.94545454545454,123.9129607188281L138.43636363636364,139.701622585143L138.92727272727274,102.61020328154517L139.4181818181818,123.21658345829046L139.9090909090909,110.36471872468076L140.4,131.51821585156887L140.8909090909091,142.90323723368178L141.3818181818182,121.25086539440902L141.87272727272727,137.83205768524994L142.36363636363635,147.99861922791038L142.85454545454544,130.8979407090846L143.34545454545454,129.3513801655207L143.83636363636364,142.85575117898716L144.3272727272727,151.06729686123845L144.8181818181818,155.9397627335035L145.3090909090909,158.86324225686252L145.8,160.67179150796366L146.2909090909091,161.75692105862436L146.78181818181818,162.35353725193502L147.27272727272725,142.28843033886935L147.76363636363635,122.08013509718307L148.25454545454545,138.54746567507027L148.74545454545455,127.78694160896664L149.23636363636365,141.80816497088324L149.72727272727272,150.32982206220464L150.21818181818182,146.07543156576867L150.70909090909092,129.36279697575262L151.20000000000002,142.97152433929773L151.6909090909091,151.13676075742478L152.18181818181816,156.03590260830103L152.67272727272726,158.97538771882677L153.16363636363636,160.7390787851422L153.65454545454546,161.7972934249315L154.14545454545456,162.43222220880503L154.63636363636365,162.81317947912916L155.12727272727273,163.04175384132367L155.61818181818182,145.26105129523825L156.1090909090909,152.45601539390339L156.6,156.8274553901882L157.0909090909091,159.45031938795907L157.58181818181816,161.0240377866216L158.07272727272726,113.2251905068931L158.56363636363636,104.9689598736731L159.05454545454546,128.2807605409643L159.54545454545456,127.5632252664395L160.03636363636366,104.80347474457375L160.52727272727273,128.12700792641894L161.0181818181818,129.64943559325152L161.5090909090909,115.858277441737L162,134.8143510818026L162.4909090909091,144.98984139051709L162.98181818181817,130.88990476614086L163.47272727272727,121.61302008790055L163.96363636363637,114.84873544129483L164.45454545454547,134.1541643444516L164.94545454545457,130.97834465664L165.4363636363636,143.8863914107444L165.9272727272727,127.12352728723154L166.4181818181818,141.57350098909936L166.9090909090909,150.1890236731343L167.4,131.93987513206392L167.8909090909091,129.32300245353161L168.38181818181818,142.8931860888794L168.87272727272727,123.25991125080371L169.36363636363637,92.96302226472542L169.85454545454547,120.80489026639147L170.34545454545454,111.09616470508058L170.83636363636361,131.73923727165288L171.3272727272727,121.03338864343814L171.8181818181818,118.53110966116962L172.3090909090909,136.25466580220507L172.8,146.6709533384834L173.2909090909091,148.83611053523248L173.78181818181818,154.65551247498564L174.27272727272728,158.14715363883755L174.76363636363635,160.24213833714867L175.25454545454545,161.44466761904965L175.74545454545455,162.1661851881902L176.23636363636362,162.6535572667603L176.72727272727272,162.94598051390233L177.21818181818182,163.06697292510182L177.70909090909092,163.19402990890725L178.20000000000002,163.2702640991905L178.69090909090912,163.31600461336046L179.1818181818182,162.90775662517663L179.67272727272726,163.09850012895214L180.16363636363636,163.21294623121744L180.65454545454546,163.2271523554909L181.14545454545456,162.96336832085075L181.63636363636363,163.1318671463566L182.12727272727273,163.23296644166012L182.61818181818182,163.29362601884222L183.10909090909092,163.33002176515149L183.60000000000002,154.31124396952967L184.09090909090907,157.94059253556395L184.58181818181816,160.1182016751845L185.07272727272726,161.42476715895685L185.56363636363636,162.20870644922027L186.05454545454546,162.67907002337833L186.54545454545456,162.96128816787314L187.03636363636363,163.13061905457005L187.52727272727273,163.23221758658818L188.01818181818183,163.29317670579906L188.50909090909093,163.3297521773256L189,163.3516974602415L189.49090909090907,163.36486462999105L189.98181818181817,163.37276493184078L190.47272727272727,134.5128900691821L190.96363636363637,146.06158019535542L191.45454545454547,152.9907942710594L191.94545454545454,157.1483227164818L192.43636363636364,159.64283978373524L192.92727272727274,161.1395500240873L193.4181818181818,162.03757616829853L193.9090909090909,162.5763918548253L194.4,162.8996812667413L194.89090909090908,163.09365491389096L195.38181818181818,163.21003910218073L195.87272727272727,163.27986961515458L196.36363636363637,163.3217679229389L196.85454545454547,163.3469069076095L197.34545454545454,163.36199029841185L197.83636363636364,163.37104033289327L198.3272727272727,161.1980087116492L198.8181818181818,152.65080500138137L199.3090909090909,156.944329154675L199.8,159.52044364665113L200.29090909090908,161.06611234183683L200.78181818181818,161.99351355894825L201.27272727272728,162.5499542892151L201.76363636363638,162.8838187273752L202.25454545454548,163.08413739027128L202.74545454545452,161.89725160284917L203.23636363636362,162.49219711555565L203.72727272727272,142.64393450119672L204.21818181818182,150.9402068545642L204.70909090909092,155.91797026658466L205.2,158.8501667767112L205.6909090909091,160.60948468278715L206.1818181818182,161.66507542643274L206.6727272727273,162.29842987262006L207.16363636363636,162.7329040774182L207.65454545454546,162.99358860029707L208.14545454545453,160.15461471487058L208.63636363636363,161.4466149827685L209.12727272727273,162.22181514350726L209.61818181818182,162.68693523995051L210.10909090909092,162.47585346008233L210.6,162.83935822989554L211.0909090909091,163.0574610917835L211.5818181818182,163.18832280891624L212.07272727272726,163.2668398391959L212.56363636363636,163.3139500573637L213.05454545454546,163.3422161882644L213.54545454545453,163.35917586680478L214.03636363636363,163.36935167392903L214.52727272727273,163.37545715820357L215.01818181818183,163.37912044876828L215.50909090909093,163.38131842310713L216,163.38263720771045L216.49090909090907,163.3834284784724L216.98181818181817,163.3839032409296L217.47272727272727,163.3841880984039L217.96363636363637,163.3843590128885L218.45454545454544,163.38446156157926L218.94545454545454,163.3845230907937L219.43636363636364,163.38456000832238L219.92727272727274,163.38458215883958L220.41818181818184,163.3845954491499L220.90909090909093,163.3846034233361L221.39999999999998,163.3846082078478L221.89090909090908,163.38461107855485L222.38181818181818,163.38461280097906L222.87272727272727,163.3846138344336L223.36363636363637,163.3846144545063L223.85454545454544,163.38461482654995L224.34545454545454,163.38461504977613L224.83636363636364,163.38461518371182L225.32727272727274,163.38461526407326L225.8181818181818,163.3846153122901L226.30909090909088,163.3846153412202L226.79999999999998,163.3846153585783L227.29090909090908,163.38461536899314L227.78181818181818,163.38461537524202L228.27272727272728,163.38461537899138L228.76363636363638,163.38461538124096L229.25454545454545,163.38461538259074L229.74545454545455,163.3846153834006L230.23636363636365,163.3846153838865L230.72727272727272,163.38461538417806L231.21818181818182,163.384615384353L231.7090909090909,163.38461538445796L232.2,163.38461538452094L232.6909090909091,163.3846153845587L233.1818181818182,128.7470748974387L233.6727272727273,142.54762955522364L234.16363636363639,120.43842386750335L234.65454545454546,137.61690047434817L235.14545454545453,147.76060181531008L235.63636363636363,154.0102072430322L236.12727272727273,157.70550896257976L236.61818181818182,159.977151531394L237.1090909090909,161.34013707268258L237.6,162.1579283974557L238.0909090909091,162.64860319231957L238.5818181818182,162.9430080692379L239.0727272727273,163.1196509953889L239.5636363636364,163.2256367510795L240.05454545454543,163.28922820449384L240.54545454545453,163.32738307654245L241.03636363636363,130.1287371649247L241.52727272727273,143.43108845280096L242.01818181818183,151.41249922552674L242.5090909090909,156.2013456891622L243,159.0746535673435L243.4909090909091,160.79863829425224L243.9818181818182,161.8330291303975L244.47272727272727,162.45366363208464L244.96363636363634,162.82604433309695L245.45454545454544,163.04947275370432" style="fill: none;" fill="none"></path></g></g></g></g><g opacity="0.2"><g><g><g><path stroke="rgb(255, 112, 67)" stroke-width="2px" d="M27.98181818181818,-37.850767218149635L28.472727272727273,117.6369247081188L28.96363636363636,149.90538468842323L29.454545454545453,107.01692246015256L29.94545454545455,153.03692290244194L30.436363636363637,109.33153644891885L30.92727272727273,104.29384509072854L31.418181818181818,98.84769035188052L31.90909090909091,160.79769226407203L32.4,99.80076819199783L32.89090909090909,142.55307680540358L33.38181818181818,43.70538756939082L33.872727272727275,159.4361538963679L34.36363636363636,75.56538924116356L34.85454545454545,61.81384117098956L35.34545454545455,48.743073855455116L35.836363636363636,161.61461537979687L36.32727272727273,70.11923450231554L36.81818181818181,12.526156508005592L37.30909090909091,162.15923079028008L37.800000000000004,78.15230538753363L38.29090909090909,162.70384612151136L38.78181818181818,162.84000001375816L39.27272727272727,162.97615382675295L39.763636363636365,-6.263077848232719L40.25454545454545,40.710002970237L40.74545454545454,162.84000001375816L41.23636363636364,114.50538395803707L41.72727272727273,-23.418458681840185L42.21818181818182,70.93615111937892L42.709090909090904,6.535387309697955L43.2,-28.04768665937278L43.69090909090909,13.6153854269248L44.18181818181818,86.86615195526527L44.67272727272728,6.671543460625854L45.163636363636364,29.00076673122554L45.654545454545456,20.28692523561992L46.14545454545454,41.11846127876869L46.63636363636364,49.69615676769844L47.12727272727273,-217.98229133165802L47.61818181818182,79.92230998896636L48.10909090909091,-252.42924972680896L48.6,142.55307680540358L49.09090909090909,32.67692194076686L49.58181818181818,-66.85154044169647L50.07272727272727,18.108457253529494L50.56363636363637,86.59384472553546L51.054545454545455,63.31153854269248L51.54545454545455,80.19461721869617L52.03636363636363,49.42384446584262L52.52727272727273,99.52846096226803L53.018181818181816,47.10923047707632L53.50909090909091,62.086153472845375L54,131.79692347863545L54.49090909090909,162.97615382675295L54.981818181818184,82.50923120746246L55.47272727272727,-176.31923953386453L55.96363636363636,-65.8984676737052L56.45454545454545,158.89153848588467L56.945454545454545,109.46769259984677L57.43636363636364,57.729227652916556L57.92727272727272,-93.40154352554909L58.41818181818182,72.70615064868561L58.90909090909091,153.44538438105238L59.4,84.96000134715668L59.8909090909091,162.70384612151136L60.38181818181818,-77.88000607032043L60.872727272727275,63.175382391764586L61.36363636363636,14.296156037312302L61.85454545454546,13.6153854269248L62.345454545454544,90.4061560860047L62.836363636363636,-83.46230681584433L63.32727272727273,87.13845918499507L63.81818181818182,-55.959230964000405L64.30909090909091,19.197696316700732L64.8,104.56615232045834L65.2909090909091,52.82768737352813L65.78181818181818,162.97615382675295L66.27272727272727,119.5430753162274L66.76363636363637,90.54230716480662L67.25454545454545,97.75846143296131L67.74545454545455,72.70615064868561L68.23636363636363,29.54538119068514L68.72727272727272,-4.765380476529776L69.21818181818182,86.73000087646338L69.7090909090909,82.64538228626436L70.2,84.4153868876971L70.6909090909091,109.60384367864864L71.18181818181817,129.20999972407634L71.67272727272727,3.676158861472055L72.16363636363636,-31.315393704634463L72.65454545454546,104.56615232045834L73.14545454545456,96.66923251404212L73.63636363636363,28.04769396323425L74.12727272727273,98.43923204334882L74.61818181818182,94.89923298473542L75.10909090909091,67.80461036929718L75.60000000000001,127.98461465422923L76.09090909090908,99.11999758161032L76.58181818181818,128.12076826909413L77.07272727272728,126.62307596951723L77.56363636363636,147.45461581676054L78.05454545454545,80.19461721869617L78.54545454545455,-4.493078318926007L79.03636363636363,12.253844206149775L79.52727272727273,121.31307738159711L80.01818181818183,139.01307774679017L80.5090909090909,139.69384582111468L81,115.73076902788418L81.49090909090908,163.24846154190107L81.98181818181818,134.11153746740175L82.47272727272728,19.742310776160334L82.96363636363635,162.70384612151136L83.45454545454545,151.13076975827033L83.94545454545455,66.03461083999049L84.43636363636364,-74.340007011707L84.92727272727274,120.49615315634472L85.41818181818181,150.04153830328812L85.9090909090909,27.230767201918827L86.4,85.913079187274L86.89090909090909,162.56769226889054L87.38181818181818,160.11692292171603L87.87272727272727,104.83845955018813L88.36363636363636,156.03230750159574L88.85454545454546,35.53615038899276L89.34545454545456,124.98923005507542L89.83636363636363,33.76615085968605L90.32727272727273,163.11230769918677L90.81818181818181,57.18461319345695L91.30909090909091,38.66769113907448L91.80000000000001,103.88538678219685L92.29090909090908,101.84307495103432L92.78181818181818,104.70230847138626L93.27272727272728,48.47077169785133L93.76363636363637,60.86076840299827L94.25454545454546,107.97000030026986L94.74545454545454,-51.73847143925155L95.23636363636363,161.47846160642803L95.72727272727273,110.42077043996407L96.21818181818182,150.31384553301794L96.7090909090909,128.12076826909413L97.2,163.24846154190107L97.69090909090909,108.65077091065737L98.18181818181819,129.07384610921144L98.67272727272727,115.18615456842458L99.16363636363636,108.51461475972945L99.65454545454546,163.24846154190107L100.14545454545454,-29.273071729219886L100.63636363636364,147.45461581676054L101.12727272727274,132.74999878268974L101.61818181818181,100.61768988118722L102.10909090909091,112.05461381834286L102.6,163.11230769918677L103.0909090909091,163.24846154190107L103.58181818181818,161.8869230850385L104.07272727272726,75.97384754969524L104.56363636363636,163.24846154190107L105.05454545454546,158.6192306221391L105.54545454545455,84.4153868876971L106.03636363636363,163.24846154190107L106.52727272727273,162.43153849552172L107.01818181818182,122.26615268565142L107.50909090909092,24.779997062224613L108,162.70384612151136L108.49090909090908,163.11230769918677L108.98181818181818,71.07230727030681L109.47272727272727,162.84000001375816L109.96363636363637,163.11230769918677L110.45454545454547,59.63538333315116L110.94545454545454,109.60384367864864L111.43636363636364,163.24846154190107L111.92727272727272,109.33153644891885L112.41818181818182,162.43153849552172L112.9090909090909,163.24846154190107L113.39999999999999,84.96000134715668L113.89090909090909,163.24846154190107L114.38181818181819,163.11230769918677L114.87272727272727,50.64922953568973L115.36363636363636,29.953849643468878L115.85454545454544,141.4638453504214L116.34545454545454,157.52999980117266L116.83636363636364,159.84461537497836L117.32727272727273,72.29769234015392L117.81818181818181,93.67384791488831L118.30909090909091,163.11230769918677L118.8,162.97615382675295L119.2909090909091,163.11230769918677L119.7818181818182,163.3846153846154L120.27272727272727,163.24846154190107L120.76363636363637,163.3846153846154L121.25454545454545,95.98846190365461L121.74545454545455,162.97615382675295L122.23636363636363,163.24846154190107L122.72727272727272,163.24846154190107L123.21818181818182,163.3846153846154L123.70909090909092,163.24846154190107L124.2,90.6784633157345L124.69090909090909,163.24846154190107L125.18181818181817,163.11230769918677L125.67272727272727,86.32153749580569L126.16363636363637,116.27538348734379L126.65454545454546,142.6892304202685L127.14545454545454,163.24846154190107L127.63636363636364,163.24846154190107L128.12727272727273,110.96538489942367L128.61818181818182,163.11230769918677L129.10909090909092,163.24846154190107L129.6,163.3846153846154L130.0909090909091,163.24846154190107L130.5818181818182,162.97615382675295L131.07272727272726,159.29999996449513L131.56363636363636,128.80153887948165L132.05454545454546,163.24846154190107L132.54545454545453,156.03230750159574L133.03636363636363,163.3846153846154L133.52727272727273,163.3846153846154L134.0181818181818,163.3846153846154L134.5090909090909,163.3846153846154L135,163.3846153846154L135.4909090909091,83.87076735611147L135.9818181818182,162.0230768584073L136.47272727272727,163.3846153846154L136.96363636363637,90.81461439453639L137.45454545454544,163.24846154190107L137.94545454545454,97.34999805230362L138.43636363636364,163.3846153846154L138.92727272727274,46.97307432614841L139.4181818181818,154.1261537234084L139.9090909090909,91.0869216242662L140.4,163.24846154190107L140.8909090909091,159.98076930685113L141.3818181818182,88.7723076354999L141.87272727272727,162.70384612151136L142.36363636363635,163.24846154190107L142.85454545454544,105.24692293084586L143.34545454545454,127.03153935017494L143.83636363636364,163.11230769918677L144.3272727272727,163.3846153846154L144.8181818181818,163.24846154190107L145.3090909090909,163.24846154190107L145.8,163.3846153846154L146.2909090909091,163.3846153846154L146.78181818181818,163.24846154190107L147.27272727272725,112.19076996927078L147.76363636363635,91.76769223465372L148.25454545454545,163.24846154190107L148.74545454545455,111.64615550981118L149.23636363636365,162.84000001375816L149.72727272727272,163.11230769918677L150.21818181818182,139.69384582111468L150.70909090909092,104.29384509072854L151.20000000000002,163.3846153846154L151.6909090909091,163.3846153846154L152.18181818181816,163.3846153846154L152.67272727272726,163.3846153846154L153.16363636363636,163.3846153846154L153.65454545454546,163.3846153846154L154.14545454545456,163.3846153846154L154.63636363636365,163.3846153846154L155.12727272727273,163.3846153846154L155.61818181818182,118.5899974761101L156.1090909090909,163.24846154190107L156.6,163.3846153846154L157.0909090909091,163.3846153846154L157.58181818181816,163.3846153846154L158.07272727272726,41.5269195873004L158.56363636363636,92.58461392384308L159.05454545454546,163.24846154190107L159.54545454545456,126.48692235465234L160.03636363636366,70.66384896177513L160.52727272727273,163.11230769918677L161.0181818181818,131.93307709350034L161.5090909090909,95.17154021446521L162,163.24846154190107L162.4909090909091,160.2530768535888L162.98181818181817,109.73999982957656L163.47272727272727,107.69769307054007L163.96363636363637,104.70230847138626L164.45454545454547,163.11230769918677L164.94545454545457,126.21461512492253L165.4363636363636,163.24846154190107L165.9272727272727,101.97923110196224L166.4181818181818,163.24846154190107L166.9090909090909,163.11230769918677L167.4,104.56615232045834L167.8909090909091,125.39769343573315L168.38181818181818,163.24846154190107L168.87272727272727,93.80999899369019L169.36363636363637,47.51768878560801L169.85454545454547,162.56769226889054L170.34545454545454,96.5330763631142L170.83636363636361,162.70384612151136L171.3272727272727,104.97461570111605L171.8181818181818,114.77769118776688L172.3090909090909,162.84000001375816L172.8,162.2953846429009L173.2909090909091,152.08384633035612L173.78181818181818,163.3846153846154L174.27272727272728,163.3846153846154L174.76363636363635,163.3846153846154L175.25454545454545,163.24846154190107L175.74545454545455,163.24846154190107L176.23636363636362,163.3846153846154L176.72727272727272,163.3846153846154L177.21818181818182,163.24846154190107L177.70909090909092,163.3846153846154L178.20000000000002,163.3846153846154L178.69090909090912,163.3846153846154L179.1818181818182,162.2953846429009L179.67272727272726,163.3846153846154L180.16363636363636,163.3846153846154L180.65454545454546,163.24846154190107L181.14545454545456,162.56769226889054L181.63636363636363,163.3846153846154L182.12727272727273,163.3846153846154L182.61818181818182,163.3846153846154L183.10909090909092,163.3846153846154L183.60000000000002,140.7830772760969L184.09090909090907,163.3846153846154L184.58181818181816,163.3846153846154L185.07272727272726,163.3846153846154L185.56363636363636,163.3846153846154L186.05454545454546,163.3846153846154L186.54545454545456,163.3846153846154L187.03636363636363,163.3846153846154L187.52727272727273,163.3846153846154L188.01818181818183,163.3846153846154L188.50909090909093,163.3846153846154L189,163.3846153846154L189.49090909090907,163.3846153846154L189.98181818181817,163.3846153846154L190.47272727272727,91.22307777519411L190.96363636363637,163.3846153846154L191.45454545454547,163.3846153846154L191.94545454545454,163.3846153846154L192.43636363636364,163.3846153846154L192.92727272727274,163.3846153846154L193.4181818181818,163.3846153846154L193.9090909090909,163.3846153846154L194.4,163.3846153846154L194.89090909090908,163.3846153846154L195.38181818181818,163.3846153846154L195.87272727272727,163.3846153846154L196.36363636363637,163.3846153846154L196.85454545454547,163.3846153846154L197.34545454545454,163.3846153846154L197.83636363636364,163.3846153846154L198.3272727272727,157.93846127978313L198.8181818181818,139.8299994359796L199.3090909090909,163.3846153846154L199.8,163.3846153846154L200.29090909090908,163.3846153846154L200.78181818181818,163.3846153846154L201.27272727272728,163.3846153846154L201.76363636363638,163.3846153846154L202.25454545454548,163.3846153846154L202.74545454545452,160.11692292171603L203.23636363636362,163.3846153846154L203.72727272727272,112.87154057965829L204.21818181818182,163.3846153846154L204.70909090909092,163.3846153846154L205.2,163.24846154190107L205.6909090909091,163.24846154190107L206.1818181818182,163.24846154190107L206.6727272727273,163.24846154190107L207.16363636363636,163.3846153846154L207.65454545454546,163.3846153846154L208.14545454545453,155.89615388673084L208.63636363636363,163.3846153846154L209.12727272727273,163.3846153846154L209.61818181818182,163.3846153846154L210.10909090909092,162.15923079028008L210.6,163.3846153846154L211.0909090909091,163.3846153846154L211.5818181818182,163.3846153846154L212.07272727272726,163.3846153846154L212.56363636363636,163.3846153846154L213.05454545454546,163.3846153846154L213.54545454545453,163.3846153846154L214.03636363636363,163.3846153846154L214.52727272727273,163.3846153846154L215.01818181818183,163.3846153846154L215.50909090909093,163.3846153846154L216,163.3846153846154L216.49090909090907,163.3846153846154L216.98181818181817,163.3846153846154L217.47272727272727,163.3846153846154L217.96363636363637,163.3846153846154L218.45454545454544,163.3846153846154L218.94545454545454,163.3846153846154L219.43636363636364,163.3846153846154L219.92727272727274,163.3846153846154L220.41818181818184,163.3846153846154L220.90909090909093,163.3846153846154L221.39999999999998,163.3846153846154L221.89090909090908,163.3846153846154L222.38181818181818,163.3846153846154L222.87272727272727,163.3846153846154L223.36363636363637,163.3846153846154L223.85454545454544,163.3846153846154L224.34545454545454,163.3846153846154L224.83636363636364,163.3846153846154L225.32727272727274,163.3846153846154L225.8181818181818,163.3846153846154L226.30909090909088,163.3846153846154L226.79999999999998,163.3846153846154L227.29090909090908,163.3846153846154L227.78181818181818,163.3846153846154L228.27272727272728,163.3846153846154L228.76363636363638,163.3846153846154L229.25454545454545,163.3846153846154L229.74545454545455,163.3846153846154L230.23636363636365,163.3846153846154L230.72727272727272,163.3846153846154L231.21818181818182,163.3846153846154L231.7090909090909,163.3846153846154L232.2,163.3846153846154L232.6909090909091,163.3846153846154L233.1818181818182,76.7907641667586L233.6727272727273,163.24846154190107L234.16363636363639,87.27461533592299L234.65454545454546,163.3846153846154L235.14545454545453,162.97615382675295L235.63636363636363,163.3846153846154L236.12727272727273,163.24846154190107L236.61818181818182,163.3846153846154L237.1090909090909,163.3846153846154L237.6,163.3846153846154L238.0909090909091,163.3846153846154L238.5818181818182,163.3846153846154L239.0727272727273,163.3846153846154L239.5636363636364,163.3846153846154L240.05454545454543,163.3846153846154L240.54545454545453,163.3846153846154L241.03636363636363,80.33076829749805L241.52727272727273,163.3846153846154L242.01818181818183,163.3846153846154L242.5090909090909,163.3846153846154L243,163.3846153846154L243.4909090909091,163.3846153846154L243.9818181818182,163.3846153846154L244.47272727272727,163.3846153846154L244.96363636363634,163.3846153846154L245.45454545454544,163.3846153846154" style="fill: none;" fill="none"></path></g></g></g></g></g></g><g transform="translate(60, 177)" clip-path="url(#clip_1)"><clipPath id="clip_1"><rect width="270" height="23"></rect></clipPath><g><g><line x1="0" y1="0" x2="0" y2="5" style="visibility: inherit;" fill="rgb(0, 0, 0)" stroke="rgb(204, 204, 204)" stroke-width="1px"></line><line x1="24.545454545454547" y1="0" x2="24.545454545454547" y2="5" style="visibility: inherit;" fill="rgb(0, 0, 0)" stroke="rgb(204, 204, 204)" stroke-width="1px"></line><line x1="49.09090909090909" y1="0" x2="49.09090909090909" y2="5" style="visibility: inherit;" fill="rgb(0, 0, 0)" stroke="rgb(204, 204, 204)" stroke-width="1px"></line><line x1="73.63636363636363" y1="0" x2="73.63636363636363" y2="5" style="visibility: inherit;" fill="rgb(0, 0, 0)" stroke="rgb(204, 204, 204)" stroke-width="1px"></line><line x1="98.18181818181819" y1="0" x2="98.18181818181819" y2="5" style="visibility: inherit;" fill="rgb(0, 0, 0)" stroke="rgb(204, 204, 204)" stroke-width="1px"></line><line x1="122.72727272727272" y1="0" x2="122.72727272727272" y2="5" style="visibility: inherit;" fill="rgb(0, 0, 0)" stroke="rgb(204, 204, 204)" stroke-width="1px"></line><line x1="147.27272727272725" y1="0" x2="147.27272727272725" y2="5" style="visibility: inherit;" fill="rgb(0, 0, 0)" stroke="rgb(204, 204, 204)" stroke-width="1px"></line><line x1="171.8181818181818" y1="0" x2="171.8181818181818" y2="5" style="visibility: inherit;" fill="rgb(0, 0, 0)" stroke="rgb(204, 204, 204)" stroke-width="1px"></line><line x1="196.36363636363637" y1="0" x2="196.36363636363637" y2="5" style="visibility: inherit;" fill="rgb(0, 0, 0)" stroke="rgb(204, 204, 204)" stroke-width="1px"></line><line x1="220.90909090909093" y1="0" x2="220.90909090909093" y2="5" style="visibility: inherit;" fill="rgb(0, 0, 0)" stroke="rgb(204, 204, 204)" stroke-width="1px"></line><line x1="245.45454545454544" y1="0" x2="245.45454545454544" y2="5" style="visibility: inherit;" fill="rgb(0, 0, 0)" stroke="rgb(204, 204, 204)" stroke-width="1px"></line><line x1="270" y1="0" x2="270" y2="5" style="visibility: inherit;" fill="rgb(0, 0, 0)" stroke="rgb(204, 204, 204)" stroke-width="1px"></line></g><g transform="translate(0, 8)"><text x="0" y="0" dx="0em" dy="0.95em" style="text-anchor: middle; visibility: hidden; font-family: Roboto, sans-serif; font-size: 12px; font-weight: 200;" fill="rgb(33, 33, 33)" stroke="none" stroke-width="1px">-1k</text><text x="24.545454545454547" y="0" dx="0em" dy="0.95em" style="text-anchor: middle; visibility: inherit; font-family: Roboto, sans-serif; font-size: 12px; font-weight: 200;" fill="rgb(33, 33, 33)" stroke="none" stroke-width="1px">0</text><text x="49.09090909090909" y="0" dx="0em" dy="0.95em" style="text-anchor: middle; visibility: inherit; font-family: Roboto, sans-serif; font-size: 12px; font-weight: 200;" fill="rgb(33, 33, 33)" stroke="none" stroke-width="1px">1k</text><text x="73.63636363636363" y="0" dx="0em" dy="0.95em" style="text-anchor: middle; visibility: inherit; font-family: Roboto, sans-serif; font-size: 12px; font-weight: 200;" fill="rgb(33, 33, 33)" stroke="none" stroke-width="1px">2k</text><text x="98.18181818181819" y="0" dx="0em" dy="0.95em" style="text-anchor: middle; visibility: inherit; font-family: Roboto, sans-serif; font-size: 12px; font-weight: 200;" fill="rgb(33, 33, 33)" stroke="none" stroke-width="1px">3k</text><text x="122.72727272727272" y="0" dx="0em" dy="0.95em" style="text-anchor: middle; visibility: inherit; font-family: Roboto, sans-serif; font-size: 12px; font-weight: 200;" fill="rgb(33, 33, 33)" stroke="none" stroke-width="1px">4k</text><text x="147.27272727272725" y="0" dx="0em" dy="0.95em" style="text-anchor: middle; visibility: inherit; font-family: Roboto, sans-serif; font-size: 12px; font-weight: 200;" fill="rgb(33, 33, 33)" stroke="none" stroke-width="1px">5k</text><text x="171.8181818181818" y="0" dx="0em" dy="0.95em" style="text-anchor: middle; visibility: inherit; font-family: Roboto, sans-serif; font-size: 12px; font-weight: 200;" fill="rgb(33, 33, 33)" stroke="none" stroke-width="1px">6k</text><text x="196.36363636363637" y="0" dx="0em" dy="0.95em" style="text-anchor: middle; visibility: inherit; font-family: Roboto, sans-serif; font-size: 12px; font-weight: 200;" fill="rgb(33, 33, 33)" stroke="none" stroke-width="1px">7k</text><text x="220.90909090909093" y="0" dx="0em" dy="0.95em" style="text-anchor: middle; visibility: inherit; font-family: Roboto, sans-serif; font-size: 12px; font-weight: 200;" fill="rgb(33, 33, 33)" stroke="none" stroke-width="1px">8k</text><text x="245.45454545454544" y="0" dx="0em" dy="0.95em" style="text-anchor: middle; visibility: inherit; font-family: Roboto, sans-serif; font-size: 12px; font-weight: 200;" fill="rgb(33, 33, 33)" stroke="none" stroke-width="1px">9k</text><text x="270" y="0" dx="0em" dy="0.95em" style="text-anchor: middle; visibility: hidden; font-family: Roboto, sans-serif; font-size: 12px; font-weight: 200;" fill="rgb(33, 33, 33)" stroke="none" stroke-width="1px">10k</text></g><line x1="0" y1="0" x2="270" y2="0" fill="rgb(0, 0, 0)" stroke="rgb(204, 204, 204)" stroke-width="1px"></line></g></g></g></g></svg>